# xmcd
#
# Track frame offsets: 
#        150
#        22571
#        41829
#        65087
#        91285
#        118560
#        134824
#        153514
#        169664
#
# Disc length: 2652 seconds
#
# Revision: 0
# Processed by: cddbd v1.5.2PL0 Copyright (c) Steve Scherf et al.
# Submitted via: ExactAudioCopy v0.99pb4
#
DISCID=740a5a09
DTITLE=Brother Goose - Brother Goose
DYEAR=2003
DGENRE=Blues
TTITLE0=Love had nothing to do with it
TTITLE1=I got a right to sing the blues
TTITLE2=You move me
TTITLE3=Sweet Infatuation
TTITLE4=Kansas City
TTITLE5=Do the Do
TTITLE6=One Bourbon
TTITLE7=Ain't no use in me lying
TTITLE8=Long Train Boogie
EXTD=
EXTT0=
EXTT1=
EXTT2=
EXTT3=
EXTT4=
EXTT5=
EXTT6=
EXTT7=
EXTT8=
PLAYORDER=
